<?xml version="1.0" standalone="no"?>
<!DOCTYPE svg PUBLIC "-//W3C//DTD SVG 1.1//EN" "http://www.w3.org/Graphics/SVG/1.1/DTD/svg11.dtd">
<svg xmlns="http://www.w3.org/2000/svg" xmlns:xlink="http://www.w3.org/1999/xlink" width="375" zoomAndPan="magnify" viewBox="0 0 375 374.999991" height="375" preserveAspectRatio="xMidYMid meet" version="1.0"><defs><g/><clipPath id="id1"><path d="M 63.070312 21.234375 L 312.070312 21.234375 L 312.070312 269.484375 L 63.070312 269.484375 Z M 63.070312 21.234375 " clip-rule="nonzero"/></clipPath></defs><g clip-path="url(#id1)"><path stroke-linecap="butt" transform="matrix(0.329403, 0, 0, 0.32886, 63.121743, 21.236256)" fill="none" stroke-linejoin="miter" d="M 132.197304 234.99155 C 173.986885 336.894177 265.155527 391.319848 377.800028 391.319848 M 377.800028 391.319848 C 490.44453 391.319848 581.601314 336.894177 623.402753 234.99155 M 377.800028 284.760988 C 437.045415 284.760988 485.060742 236.737637 485.060742 177.501316 C 485.060742 177.501316 487.634051 142.045046 458.035074 109.534556 M 377.800028 171.372192 L 377.800028 33.4669 M 297.564983 109.534556 C 267.977865 142.056924 270.551173 177.513194 270.551173 177.513194 C 270.551173 236.749515 318.5665 284.772866 377.811887 284.772866 M 725.161093 602.085697 C 651.946317 635.15446 610.251605 614.866584 539.230664 604.200007 C 451.121531 590.967751 378.784289 625.426257 378.784289 716.911749 M 378.796148 716.911749 C 378.796148 625.426257 306.470764 590.967751 218.361632 604.200007 C 147.352549 614.866584 105.63412 635.15446 32.431203 602.085697 M 47.195115 393.244108 C 122.23611 510.576449 283.737897 436.041074 379.10447 528.856918 C 473.048017 432.905243 631.774899 507.143664 715.472646 397.389582 " stroke="rgb(5.099487%, 26.699829%, 3.49884%)" stroke-width="52" stroke-opacity="1" stroke-miterlimit="10"/></g><g fill="rgb(30.198669%, 18.03894%, 4.708862%)" fill-opacity="1"><g transform="translate(70.984623, 321.060418)"><g><path d="M 2.640625 7.03125 L 2.640625 -37.640625 L 10.421875 -37.640625 L 10.421875 -35.859375 C 10.617188 -36.078125 10.8125 -36.269531 11 -36.4375 C 11.195312 -36.613281 11.414062 -36.773438 11.65625 -36.921875 C 12.769531 -37.648438 13.9375 -38.015625 15.15625 -38.015625 C 16.34375 -38.015625 17.382812 -37.796875 18.28125 -37.359375 C 19.976562 -36.546875 21.125 -35.109375 21.71875 -33.046875 C 22.257812 -31.140625 22.53125 -28.742188 22.53125 -25.859375 L 22.53125 -12.359375 C 22.53125 -7.921875 22.085938 -4.804688 21.203125 -3.015625 C 20.296875 -1.171875 19.050781 0.03125 17.46875 0.59375 C 17.03125 0.738281 16.566406 0.851562 16.078125 0.9375 C 15.597656 1.019531 15.09375 1.0625 14.5625 1.0625 C 13.445312 1.0625 12.421875 0.773438 11.484375 0.203125 C 11.097656 -0.0234375 10.742188 -0.289062 10.421875 -0.59375 L 10.421875 7.65625 L 2.640625 7.65625 Z M 10.953125 -6.546875 C 11.109375 -6.160156 11.316406 -5.882812 11.578125 -5.71875 C 11.835938 -5.5625 12.179688 -5.484375 12.609375 -5.484375 C 13.035156 -5.484375 13.375 -5.566406 13.625 -5.734375 C 13.875 -5.910156 14.070312 -6.1875 14.21875 -6.5625 C 14.539062 -7.488281 14.703125 -9.003906 14.703125 -11.109375 L 14.703125 -26.453125 C 14.703125 -27.835938 14.609375 -28.941406 14.421875 -29.765625 C 14.234375 -30.585938 14.007812 -31.097656 13.75 -31.296875 C 13.5 -31.472656 13.160156 -31.5625 12.734375 -31.5625 C 11.972656 -31.5625 11.414062 -31.257812 11.0625 -30.65625 C 10.632812 -29.925781 10.421875 -28.535156 10.421875 -26.484375 L 10.421875 -10.828125 C 10.421875 -8.859375 10.597656 -7.429688 10.953125 -6.546875 Z M 10.953125 -6.546875 "/></g></g></g><g fill="rgb(30.198669%, 18.03894%, 4.708862%)" fill-opacity="1"><g transform="translate(95.608736, 321.060418)"><g><path d="M 2.734375 0 L 2.734375 -37.640625 L 10.515625 -37.640625 L 10.515625 0.609375 L 2.734375 0.609375 Z M 2.671875 -40.421875 L 2.671875 -46.71875 L 10.484375 -46.71875 L 10.484375 -39.8125 L 2.671875 -39.8125 Z M 2.671875 -40.421875 "/></g></g></g><g fill="rgb(30.198669%, 18.03894%, 4.708862%)" fill-opacity="1"><g transform="translate(108.784364, 321.060418)"><g><path d="M 13.96875 -19.125 C 12.457031 -18.382812 11.421875 -17.691406 10.859375 -17.046875 C 10.234375 -16.359375 9.921875 -15.226562 9.921875 -13.65625 L 9.921875 -9.671875 C 9.921875 -8.046875 10.085938 -6.894531 10.421875 -6.21875 C 10.660156 -5.707031 11.050781 -5.453125 11.59375 -5.453125 C 12.238281 -5.453125 12.757812 -5.664062 13.15625 -6.09375 C 13.582031 -6.539062 13.851562 -7.035156 13.96875 -7.578125 Z M 9.421875 0.984375 C 6.773438 0.984375 4.878906 0.015625 3.734375 -1.921875 C 3.171875 -2.847656 2.75 -3.957031 2.46875 -5.25 C 2.1875 -6.550781 2.039062 -8.039062 2.03125 -9.71875 L 2.03125 -12.09375 C 2.03125 -15.4375 2.945312 -17.976562 4.78125 -19.71875 C 5.375 -20.289062 6.148438 -20.84375 7.109375 -21.375 C 8.078125 -21.914062 9.238281 -22.441406 10.59375 -22.953125 C 10.832031 -23.046875 11.117188 -23.15625 11.453125 -23.28125 C 11.785156 -23.40625 12.164062 -23.539062 12.59375 -23.6875 C 13.164062 -23.90625 13.625 -24.082031 13.96875 -24.21875 L 13.96875 -27.03125 C 13.96875 -28.945312 13.835938 -30.226562 13.578125 -30.875 C 13.390625 -31.332031 12.925781 -31.5625 12.1875 -31.5625 C 11.894531 -31.5625 11.648438 -31.53125 11.453125 -31.46875 C 11.253906 -31.414062 11.097656 -31.332031 10.984375 -31.21875 C 10.867188 -31.101562 10.769531 -30.960938 10.6875 -30.796875 C 10.539062 -30.484375 10.425781 -30.019531 10.34375 -29.40625 C 10.257812 -28.800781 10.21875 -28.070312 10.21875 -27.21875 L 10.21875 -24.953125 L 2.515625 -24.953125 L 2.515625 -26.6875 C 2.515625 -30.320312 3.207031 -33.109375 4.59375 -35.046875 C 6.019531 -37.066406 8.503906 -38.078125 12.046875 -38.078125 C 15.578125 -38.078125 18.109375 -37.078125 19.640625 -35.078125 C 21.140625 -33.117188 21.890625 -30.226562 21.890625 -26.40625 L 21.890625 0.609375 L 14.0625 0.609375 L 14.0625 -1.203125 C 13.800781 -0.890625 13.515625 -0.597656 13.203125 -0.328125 C 12.148438 0.546875 10.890625 0.984375 9.421875 0.984375 Z M 9.421875 0.984375 "/></g></g></g><g fill="rgb(30.198669%, 18.03894%, 4.708862%)" fill-opacity="1"><g transform="translate(132.989028, 321.060418)"><g><path d="M 15.75 -38.078125 C 18.070312 -38.078125 19.820312 -37.304688 21 -35.765625 C 22.1875 -34.234375 22.78125 -32.023438 22.78125 -29.140625 L 22.78125 0.609375 L 15 0.609375 L 15 -28.75 C 15 -29.675781 14.800781 -30.382812 14.40625 -30.875 C 14.050781 -31.332031 13.507812 -31.5625 12.78125 -31.5625 C 12.539062 -31.5625 12.320312 -31.53125 12.125 -31.46875 C 11.925781 -31.40625 11.742188 -31.304688 11.578125 -31.171875 C 11.410156 -31.035156 11.253906 -30.863281 11.109375 -30.65625 C 10.878906 -30.3125 10.707031 -29.90625 10.59375 -29.4375 C 10.539062 -29.207031 10.5 -28.957031 10.46875 -28.6875 C 10.4375 -28.414062 10.421875 -28.125 10.421875 -27.8125 L 10.421875 0.609375 L 2.640625 0.609375 L 2.640625 -37.640625 L 10.421875 -37.640625 L 10.421875 -35.4375 C 10.578125 -35.65625 10.742188 -35.851562 10.921875 -36.03125 C 11.109375 -36.21875 11.3125 -36.398438 11.53125 -36.578125 C 12.125 -37.066406 12.769531 -37.4375 13.46875 -37.6875 C 14.175781 -37.945312 14.9375 -38.078125 15.75 -38.078125 Z M 15.75 -38.078125 "/></g></g></g><g fill="rgb(30.198669%, 18.03894%, 4.708862%)" fill-opacity="1"><g transform="translate(158.155958, 321.060418)"><g><path d="M 11.890625 1.0625 C 9.703125 1.0625 7.878906 0.628906 6.421875 -0.234375 C 4.972656 -1.097656 3.925781 -2.382812 3.28125 -4.09375 C 2.488281 -6.1875 2.09375 -8.925781 2.09375 -12.3125 L 2.09375 -26.109375 C 2.09375 -30.015625 2.941406 -32.984375 4.640625 -35.015625 C 6.335938 -37.054688 8.847656 -38.078125 12.171875 -38.078125 C 15.753906 -38.078125 18.242188 -36.992188 19.640625 -34.828125 C 21.003906 -32.722656 21.6875 -29.773438 21.6875 -25.984375 L 21.6875 -17.453125 L 9.921875 -17.453125 L 9.921875 -10.78125 C 9.921875 -10.425781 9.925781 -10.082031 9.9375 -9.75 C 9.945312 -9.414062 9.960938 -9.113281 9.984375 -8.84375 C 10.003906 -8.570312 10.023438 -8.3125 10.046875 -8.0625 C 10.078125 -7.820312 10.109375 -7.601562 10.140625 -7.40625 C 10.171875 -7.207031 10.207031 -7.03125 10.25 -6.875 C 10.289062 -6.71875 10.332031 -6.582031 10.375 -6.46875 C 10.414062 -6.363281 10.453125 -6.28125 10.484375 -6.21875 C 10.648438 -5.957031 10.851562 -5.765625 11.09375 -5.640625 C 11.332031 -5.515625 11.625 -5.453125 11.96875 -5.453125 C 12.21875 -5.453125 12.4375 -5.472656 12.625 -5.515625 C 12.8125 -5.554688 12.941406 -5.597656 13.015625 -5.640625 C 13.085938 -5.679688 13.144531 -5.726562 13.1875 -5.78125 C 13.3125 -5.988281 13.421875 -6.203125 13.515625 -6.421875 C 13.609375 -6.648438 13.679688 -6.867188 13.734375 -7.078125 C 13.796875 -7.296875 13.832031 -7.507812 13.84375 -7.71875 C 13.863281 -7.90625 13.878906 -8.109375 13.890625 -8.328125 C 13.910156 -8.546875 13.921875 -8.78125 13.921875 -9.03125 C 13.929688 -9.289062 13.9375 -9.566406 13.9375 -9.859375 C 13.9375 -10.148438 13.9375 -10.457031 13.9375 -10.78125 L 13.9375 -14.65625 L 21.640625 -14.65625 L 21.640625 -12.0625 C 21.640625 -8.644531 21.367188 -6.171875 20.828125 -4.640625 C 20.265625 -3.078125 19.597656 -1.929688 18.828125 -1.203125 C 17.265625 0.304688 14.953125 1.0625 11.890625 1.0625 Z M 9.890625 -22.515625 L 13.9375 -22.515625 L 13.9375 -26.625 C 13.9375 -28.582031 13.789062 -29.96875 13.5 -30.78125 C 13.414062 -30.988281 13.316406 -31.160156 13.203125 -31.296875 C 13.085938 -31.429688 12.941406 -31.53125 12.765625 -31.59375 C 12.597656 -31.65625 12.382812 -31.6875 12.125 -31.6875 L 12.09375 -31.6875 C 11.4375 -31.6875 10.929688 -31.429688 10.578125 -30.921875 C 10.222656 -30.410156 10.015625 -29.554688 9.953125 -28.359375 C 9.910156 -27.867188 9.890625 -27.234375 9.890625 -26.453125 Z M 9.890625 -22.515625 "/></g></g></g><g fill="rgb(30.198669%, 18.03894%, 4.708862%)" fill-opacity="1"><g transform="translate(181.793132, 321.060418)"><g><path d="M 10 0.859375 C 7.507812 0.859375 5.804688 0.347656 4.890625 -0.671875 C 3.992188 -1.648438 3.546875 -3.3125 3.546875 -5.65625 L 3.546875 -30.90625 L 0.546875 -30.90625 L 0.546875 -36.875 L 3.546875 -36.875 L 3.546875 -44.078125 L 11.328125 -44.078125 L 11.328125 -36.875 L 14.9375 -36.875 L 14.9375 -30.90625 L 11.328125 -30.90625 L 11.328125 -6.78125 C 11.328125 -6.15625 11.441406 -5.78125 11.671875 -5.65625 C 12.035156 -5.457031 12.957031 -5.359375 14.4375 -5.359375 L 15.0625 -5.359375 L 15.0625 0.859375 Z M 10 0.859375 "/></g></g></g><g fill="rgb(30.198669%, 18.03894%, 4.708862%)" fill-opacity="1"><g transform="translate(197.707514, 321.060418)"><g><path d="M 13.96875 -19.125 C 12.457031 -18.382812 11.421875 -17.691406 10.859375 -17.046875 C 10.234375 -16.359375 9.921875 -15.226562 9.921875 -13.65625 L 9.921875 -9.671875 C 9.921875 -8.046875 10.085938 -6.894531 10.421875 -6.21875 C 10.660156 -5.707031 11.050781 -5.453125 11.59375 -5.453125 C 12.238281 -5.453125 12.757812 -5.664062 13.15625 -6.09375 C 13.582031 -6.539062 13.851562 -7.035156 13.96875 -7.578125 Z M 9.421875 0.984375 C 6.773438 0.984375 4.878906 0.015625 3.734375 -1.921875 C 3.171875 -2.847656 2.75 -3.957031 2.46875 -5.25 C 2.1875 -6.550781 2.039062 -8.039062 2.03125 -9.71875 L 2.03125 -12.09375 C 2.03125 -15.4375 2.945312 -17.976562 4.78125 -19.71875 C 5.375 -20.289062 6.148438 -20.84375 7.109375 -21.375 C 8.078125 -21.914062 9.238281 -22.441406 10.59375 -22.953125 C 10.832031 -23.046875 11.117188 -23.15625 11.453125 -23.28125 C 11.785156 -23.40625 12.164062 -23.539062 12.59375 -23.6875 C 13.164062 -23.90625 13.625 -24.082031 13.96875 -24.21875 L 13.96875 -27.03125 C 13.96875 -28.945312 13.835938 -30.226562 13.578125 -30.875 C 13.390625 -31.332031 12.925781 -31.5625 12.1875 -31.5625 C 11.894531 -31.5625 11.648438 -31.53125 11.453125 -31.46875 C 11.253906 -31.414062 11.097656 -31.332031 10.984375 -31.21875 C 10.867188 -31.101562 10.769531 -30.960938 10.6875 -30.796875 C 10.539062 -30.484375 10.425781 -30.019531 10.34375 -29.40625 C 10.257812 -28.800781 10.21875 -28.070312 10.21875 -27.21875 L 10.21875 -24.953125 L 2.515625 -24.953125 L 2.515625 -26.6875 C 2.515625 -30.320312 3.207031 -33.109375 4.59375 -35.046875 C 6.019531 -37.066406 8.503906 -38.078125 12.046875 -38.078125 C 15.578125 -38.078125 18.109375 -37.078125 19.640625 -35.078125 C 21.140625 -33.117188 21.890625 -30.226562 21.890625 -26.40625 L 21.890625 0.609375 L 14.0625 0.609375 L 14.0625 -1.203125 C 13.800781 -0.890625 13.515625 -0.597656 13.203125 -0.328125 C 12.148438 0.546875 10.890625 0.984375 9.421875 0.984375 Z M 9.421875 0.984375 "/></g></g></g><g fill="rgb(30.198669%, 18.03894%, 4.708862%)" fill-opacity="1"><g transform="translate(221.912178, 321.060418)"><g><path d="M 16.140625 -38.078125 C 16.367188 -38.078125 16.546875 -37.988281 16.671875 -37.8125 C 16.796875 -37.632812 16.875 -37.363281 16.90625 -37 C 16.9375 -36.632812 16.945312 -36.28125 16.9375 -35.9375 C 16.9375 -35.601562 16.921875 -35.160156 16.890625 -34.609375 C 16.867188 -34.054688 16.859375 -33.625 16.859375 -33.3125 L 16.828125 -31.9375 L 16.828125 -31.3125 L 16.21875 -31.3125 C 14.96875 -31.3125 13.738281 -31.097656 12.53125 -30.671875 C 11.5 -30.316406 10.8125 -29.832031 10.46875 -29.21875 L 10.46875 0.609375 L 2.640625 0.609375 L 2.640625 -37.640625 L 10.46875 -37.640625 L 10.46875 -35.515625 C 10.59375 -35.679688 10.722656 -35.832031 10.859375 -35.96875 C 10.992188 -36.113281 11.132812 -36.25 11.28125 -36.375 C 11.425781 -36.507812 11.582031 -36.644531 11.75 -36.78125 C 11.976562 -36.9375 12.222656 -37.085938 12.484375 -37.234375 C 12.753906 -37.390625 13.03125 -37.515625 13.3125 -37.609375 C 13.601562 -37.710938 13.898438 -37.800781 14.203125 -37.875 C 14.503906 -37.945312 14.816406 -38 15.140625 -38.03125 C 15.460938 -38.0625 15.796875 -38.078125 16.140625 -38.078125 Z M 16.140625 -38.078125 "/></g></g></g><g fill="rgb(30.198669%, 18.03894%, 4.708862%)" fill-opacity="1"><g transform="translate(238.887519, 321.060418)"><g><path d="M 13.96875 -19.125 C 12.457031 -18.382812 11.421875 -17.691406 10.859375 -17.046875 C 10.234375 -16.359375 9.921875 -15.226562 9.921875 -13.65625 L 9.921875 -9.671875 C 9.921875 -8.046875 10.085938 -6.894531 10.421875 -6.21875 C 10.660156 -5.707031 11.050781 -5.453125 11.59375 -5.453125 C 12.238281 -5.453125 12.757812 -5.664062 13.15625 -6.09375 C 13.582031 -6.539062 13.851562 -7.035156 13.96875 -7.578125 Z M 9.421875 0.984375 C 6.773438 0.984375 4.878906 0.015625 3.734375 -1.921875 C 3.171875 -2.847656 2.75 -3.957031 2.46875 -5.25 C 2.1875 -6.550781 2.039062 -8.039062 2.03125 -9.71875 L 2.03125 -12.09375 C 2.03125 -15.4375 2.945312 -17.976562 4.78125 -19.71875 C 5.375 -20.289062 6.148438 -20.84375 7.109375 -21.375 C 8.078125 -21.914062 9.238281 -22.441406 10.59375 -22.953125 C 10.832031 -23.046875 11.117188 -23.15625 11.453125 -23.28125 C 11.785156 -23.40625 12.164062 -23.539062 12.59375 -23.6875 C 13.164062 -23.90625 13.625 -24.082031 13.96875 -24.21875 L 13.96875 -27.03125 C 13.96875 -28.945312 13.835938 -30.226562 13.578125 -30.875 C 13.390625 -31.332031 12.925781 -31.5625 12.1875 -31.5625 C 11.894531 -31.5625 11.648438 -31.53125 11.453125 -31.46875 C 11.253906 -31.414062 11.097656 -31.332031 10.984375 -31.21875 C 10.867188 -31.101562 10.769531 -30.960938 10.6875 -30.796875 C 10.539062 -30.484375 10.425781 -30.019531 10.34375 -29.40625 C 10.257812 -28.800781 10.21875 -28.070312 10.21875 -27.21875 L 10.21875 -24.953125 L 2.515625 -24.953125 L 2.515625 -26.6875 C 2.515625 -30.320312 3.207031 -33.109375 4.59375 -35.046875 C 6.019531 -37.066406 8.503906 -38.078125 12.046875 -38.078125 C 15.578125 -38.078125 18.109375 -37.078125 19.640625 -35.078125 C 21.140625 -33.117188 21.890625 -30.226562 21.890625 -26.40625 L 21.890625 0.609375 L 14.0625 0.609375 L 14.0625 -1.203125 C 13.800781 -0.890625 13.515625 -0.597656 13.203125 -0.328125 C 12.148438 0.546875 10.890625 0.984375 9.421875 0.984375 Z M 9.421875 0.984375 "/></g></g></g><g fill="rgb(30.198669%, 18.03894%, 4.708862%)" fill-opacity="1"><g transform="translate(263.092183, 321.060418)"><g><path d="M 16.140625 -38.078125 C 16.367188 -38.078125 16.546875 -37.988281 16.671875 -37.8125 C 16.796875 -37.632812 16.875 -37.363281 16.90625 -37 C 16.9375 -36.632812 16.945312 -36.28125 16.9375 -35.9375 C 16.9375 -35.601562 16.921875 -35.160156 16.890625 -34.609375 C 16.867188 -34.054688 16.859375 -33.625 16.859375 -33.3125 L 16.828125 -31.9375 L 16.828125 -31.3125 L 16.21875 -31.3125 C 14.96875 -31.3125 13.738281 -31.097656 12.53125 -30.671875 C 11.5 -30.316406 10.8125 -29.832031 10.46875 -29.21875 L 10.46875 0.609375 L 2.640625 0.609375 L 2.640625 -37.640625 L 10.46875 -37.640625 L 10.46875 -35.515625 C 10.59375 -35.679688 10.722656 -35.832031 10.859375 -35.96875 C 10.992188 -36.113281 11.132812 -36.25 11.28125 -36.375 C 11.425781 -36.507812 11.582031 -36.644531 11.75 -36.78125 C 11.976562 -36.9375 12.222656 -37.085938 12.484375 -37.234375 C 12.753906 -37.390625 13.03125 -37.515625 13.3125 -37.609375 C 13.601562 -37.710938 13.898438 -37.800781 14.203125 -37.875 C 14.503906 -37.945312 14.816406 -38 15.140625 -38.03125 C 15.460938 -38.0625 15.796875 -38.078125 16.140625 -38.078125 Z M 16.140625 -38.078125 "/></g></g></g><g fill="rgb(30.198669%, 18.03894%, 4.708862%)" fill-opacity="1"><g transform="translate(280.067524, 321.060418)"><g><path d="M 12 -5.453125 C 12.257812 -5.453125 12.488281 -5.484375 12.6875 -5.546875 C 12.882812 -5.617188 13.046875 -5.722656 13.171875 -5.859375 C 13.304688 -6.003906 13.414062 -6.191406 13.5 -6.421875 C 13.84375 -7.242188 14.015625 -8.5 14.015625 -10.1875 L 14.015625 -26.75 C 14.015625 -27.625 13.96875 -28.378906 13.875 -29.015625 C 13.789062 -29.660156 13.664062 -30.179688 13.5 -30.578125 C 13.351562 -30.921875 13.160156 -31.171875 12.921875 -31.328125 C 12.679688 -31.484375 12.363281 -31.5625 11.96875 -31.5625 C 11.707031 -31.5625 11.476562 -31.53125 11.28125 -31.46875 C 11.082031 -31.40625 10.914062 -31.300781 10.78125 -31.15625 C 10.65625 -31.019531 10.539062 -30.835938 10.4375 -30.609375 C 10.269531 -30.210938 10.140625 -29.6875 10.046875 -29.03125 C 9.960938 -28.382812 9.921875 -27.625 9.921875 -26.75 L 9.921875 -10.1875 C 9.921875 -9.53125 9.945312 -8.9375 10 -8.40625 C 10.0625 -7.875 10.140625 -7.429688 10.234375 -7.078125 C 10.335938 -6.722656 10.453125 -6.429688 10.578125 -6.203125 C 10.703125 -5.984375 10.835938 -5.820312 10.984375 -5.71875 C 11.117188 -5.625 11.265625 -5.554688 11.421875 -5.515625 C 11.585938 -5.472656 11.78125 -5.453125 12 -5.453125 Z M 12 1.0625 C 8.28125 1.0625 5.6875 -0.0703125 4.21875 -2.34375 C 2.800781 -4.550781 2.09375 -7.6875 2.09375 -11.75 L 2.09375 -25.59375 C 2.09375 -29.675781 2.921875 -32.773438 4.578125 -34.890625 C 6.234375 -37.015625 8.695312 -38.078125 11.96875 -38.078125 C 15.238281 -38.078125 17.703125 -37.015625 19.359375 -34.890625 C 21.015625 -32.773438 21.84375 -29.675781 21.84375 -25.59375 L 21.84375 -11.75 C 21.84375 -5.3125 20.128906 -1.328125 16.703125 0.203125 C 15.410156 0.773438 13.84375 1.0625 12 1.0625 Z M 12 1.0625 "/></g></g></g></svg>